# xmcd
#
# Track frame offsets:
#	150
#	10540
#	28815
#	40137
#	56922
#	67955
#	80672
#	101780
#	122340
#	133232
#	148395
#	165842
#	183145
#	203377
#	216707
#
# Disc length: 3106 seconds
#
# Revision: 1
# Processed by: cddbd v1.5PL3 Copyright (c) Steve Scherf et al.
# Submitted via: audiograbber 1.81.03
#
DISCID=d30c200f
DTITLE=Johnny Cash - Unearthed (Volume 5 - Best of Cash on America)
DYEAR=2003
DGENRE=Country
TTITLE0=Delia's gone
TTITLE1=Bird on a Wire
TTITLE2=Thirteen
TTITLE3=Rowboat
TTITLE4=The One Rose
TTITLE5=Rusty Cage
TTITLE6=Southern Accents
TTITLE7=Mercy Seat
TTITLE8=Solitary Man
TTITLE9=Wayfaring Stranger
TTITLE10=One
TTITLE11=Hung My Head
TTITLE12=The Man Comes around
TTITLE13=We'll Meet again
TTITLE14=Hurt
EXTD=Disc 5 of the 'Unearthed' box-set
EXTT0=
EXTT1=
EXTT2=
EXTT3=
EXTT4=
EXTT5=
EXTT6=
EXTT7=
EXTT8=
EXTT9=
EXTT10=
EXTT11=
EXTT12=
EXTT13=
EXTT14=
PLAYORDER=
